<?xml version="1.0" standalone="no"?>
<!DOCTYPE svg PUBLIC "-//W3C//DTD SVG 20010904//EN"
 "http://www.w3.org/TR/2001/REC-SVG-20010904/DTD/svg10.dtd">
<svg version="1.0" xmlns="http://www.w3.org/2000/svg"
 width="1145.000000pt" height="385.000000pt" viewBox="0 0 1145.000000 385.000000"
 preserveAspectRatio="xMidYMid meet">

<g transform="translate(0.000000,385.000000) scale(0.100000,-0.100000)"
fill="#000000" stroke="none">
<path d="M4155 3197 c-19 -15 -20 -27 -20 -417 0 -345 2 -402 15 -411 20 -13
302 -5 355 11 102 30 178 174 146 273 -7 20 -37 63 -67 97 -30 33 -54 66 -54
71 0 6 18 34 41 63 40 50 41 53 36 112 -6 81 -49 142 -127 181 -49 25 -67 28
-180 31 -100 3 -129 1 -145 -11z m277 -63 c68 -22 103 -71 103 -145 0 -108
-74 -159 -232 -159 -107 0 -113 8 -113 158 0 134 9 158 63 165 49 6 127 -2
179 -19z m51 -380 c46 -23 66 -44 89 -88 28 -54 21 -122 -17 -171 -44 -58 -74
-71 -179 -78 -100 -6 -164 3 -177 25 -5 7 -9 76 -9 152 0 182 -5 176 147 176
85 0 122 -4 146 -16z"/>
<path d="M7966 3195 c-12 -12 -16 -36 -16 -96 0 -105 -8 -119 -66 -119 -31 0
-46 -5 -51 -16 -8 -22 9 -35 51 -38 67 -6 66 -1 66 -280 0 -204 3 -256 14
-272 14 -18 16 -18 32 -2 15 15 17 42 16 263 l-2 246 26 26 c20 20 32 24 58
20 40 -6 59 4 54 29 -2 15 -15 20 -58 24 -69 6 -81 26 -77 127 1 55 -2 76 -14
88 -15 15 -17 15 -33 0z"/>
<path d="M6084 3188 c-5 -7 -7 -66 -6 -131 3 -81 0 -123 -8 -133 -18 -20 -54
-17 -76 7 -25 28 -42 36 -109 54 -49 12 -67 12 -136 0 -44 -7 -92 -21 -106
-30 -104 -68 -165 -174 -166 -285 0 -136 96 -266 230 -311 37 -12 86 -22 108
-21 49 0 138 34 177 68 39 32 53 31 92 -12 27 -29 34 -33 44 -21 8 10 11 124
9 418 l-2 404 -22 3 c-11 2 -25 -3 -29 -10z m-187 -260 c84 -31 138 -87 168
-173 30 -84 30 -82 5 -164 -26 -88 -80 -144 -170 -177 -80 -29 -104 -30 -177
-3 -85 32 -145 95 -171 181 -21 67 -21 68 -3 137 26 97 83 162 177 200 64 26
100 26 171 -1z"/>
<path d="M2230 3080 c-49 -48 -61 -70 -39 -70 6 0 13 9 16 20 6 22 41 25 55 5
4 -5 8 0 8 13 0 12 4 22 8 22 5 0 9 14 10 30 0 17 -2 30 -4 30 -3 0 -27 -22
-54 -50z"/>
<path d="M2225 3020 c-7 -12 2 -30 16 -30 5 0 9 9 9 20 0 21 -15 27 -25 10z"/>
<path d="M6560 2993 c-83 -16 -169 -70 -218 -139 -23 -30 -62 -156 -62 -197 0
-10 10 -50 21 -88 28 -91 89 -156 186 -200 115 -52 191 -41 319 46 45 30 50
31 65 4 8 -17 7 -33 -6 -75 -36 -115 -105 -174 -212 -181 -113 -8 -183 23
-248 109 -34 44 -47 51 -71 33 -17 -12 -16 -16 16 -63 21 -30 56 -63 87 -82
173 -105 389 -53 467 114 24 50 24 55 25 360 0 299 -3 336 -30 336 -5 0 -15
-13 -24 -30 -20 -38 -52 -39 -94 -4 -59 50 -143 71 -221 57z m157 -77 c69 -35
119 -91 143 -160 25 -73 25 -95 0 -173 -43 -139 -204 -223 -329 -173 -67 26
-92 46 -139 107 -35 45 -37 53 -41 131 -2 60 1 96 13 126 35 92 173 182 263
172 24 -3 64 -17 90 -30z"/>
<path d="M7349 2991 c-107 -22 -224 -119 -248 -206 -14 -50 -14 -188 -1 -236
6 -19 35 -63 65 -96 65 -72 156 -115 241 -115 113 1 299 128 277 190 -8 22
-25 13 -82 -41 -65 -62 -154 -102 -211 -94 -73 9 -140 48 -191 109 -53 64 -62
103 -31 131 16 15 50 17 275 17 292 0 294 1 283 72 -15 91 -108 208 -196 247
-53 23 -131 32 -181 22z m123 -59 c123 -41 220 -173 161 -218 -22 -17 -433
-20 -464 -4 -43 24 -5 114 74 174 35 27 127 65 158 66 9 0 41 -8 71 -18z"/>
<path d="M2160 2959 c0 -9 -11 -24 -25 -33 -23 -15 -35 -46 -17 -46 4 0 28 20
53 44 l46 44 -28 4 c-22 4 -29 1 -29 -13z"/>
<path d="M4794 2959 c-10 -17 -5 -365 7 -420 6 -26 23 -68 40 -93 38 -61 131
-106 219 -106 50 0 65 5 109 35 56 39 80 43 116 19 13 -9 29 -13 35 -9 6 4 10
102 10 284 0 235 -2 280 -15 291 -12 10 -18 10 -29 1 -11 -9 -15 -55 -18 -214
-3 -213 -5 -220 -56 -282 -28 -34 -112 -74 -157 -75 -16 0 -58 13 -93 30 -55
26 -66 36 -85 77 -20 43 -22 69 -27 258 -5 206 -5 210 -27 213 -11 2 -24 -2
-29 -9z"/>
<path d="M3860 2941 c6 -12 15 -21 20 -21 18 0 11 19 -11 30 -19 11 -20 10 -9
-9z"/>
<path d="M2064 2895 c-10 -8 -17 -15 -14 -15 35 -8 40 -7 40 11 0 23 -1 23
-26 4z"/>
<path d="M2001 2851 c-24 -19 -24 -19 -7 -52 17 -32 17 -33 13 -6 -3 17 3 35
14 49 31 34 19 39 -20 9z"/>
<path d="M2020 2789 c0 -5 5 -7 10 -4 6 3 10 8 10 11 0 2 -4 4 -10 4 -5 0 -10
-5 -10 -11z"/>
<path d="M1895 2771 c-3 -5 -1 -12 5 -16 5 -3 10 1 10 9 0 18 -6 21 -15 7z"/>
<path d="M1948 2749 c-47 -50 -36 -65 18 -24 21 16 31 31 28 40 -8 21 -15 18
-46 -16z"/>
<path d="M3825 2719 c-9 -14 -2 -20 14 -10 8 6 9 11 3 15 -6 3 -14 1 -17 -5z"/>
<path d="M1821 2664 c0 -11 3 -14 6 -6 3 7 2 16 -1 19 -3 4 -6 -2 -5 -13z"/>
<path d="M8997 2655 c-3 -16 -9 -59 -13 -95 -3 -36 -11 -71 -16 -77 -11 -14
-78 -18 -78 -5 0 4 -55 5 -122 2 -68 -3 -154 -1 -193 3 -38 5 -96 7 -128 5
-31 -2 -57 1 -57 6 0 5 -7 3 -15 -4 -11 -9 -19 -10 -28 -1 -10 7 -17 7 -24 0
-19 -19 -33 0 -33 45 0 48 -18 74 -38 54 -7 -7 -12 -30 -12 -53 0 -22 -5 -58
-10 -80 -11 -50 10 -80 50 -70 14 4 74 7 134 6 l109 0 34 -37 c27 -30 32 -44
28 -68 -17 -104 -25 -454 -31 -1313 l-7 -973 253 0 253 0 -7 1103 c-4 606 -9
1116 -10 1132 -2 17 -7 116 -11 220 -8 194 -17 259 -28 200z"/>
<path d="M9746 2635 c-3 -8 -1 -15 4 -15 6 0 10 7 10 15 0 8 -2 15 -4 15 -2 0
-6 -7 -10 -15z"/>
<path d="M10771 2596 c-11 -13 -11 -17 2 -22 9 -3 19 -14 22 -24 4 -11 12 -17
21 -13 19 7 18 13 -9 47 -20 25 -24 26 -36 12z"/>
<path d="M9682 2571 c-12 -14 -22 -34 -22 -44 0 -10 -11 -22 -24 -27 -13 -5
-29 -21 -35 -37 -6 -15 -20 -44 -31 -63 -11 -19 -20 -47 -20 -62 0 -15 -9 -52
-21 -83 -33 -87 -37 -86 229 -83 l226 3 12 41 c13 44 60 123 81 137 7 4 13 14
13 22 0 8 12 18 28 21 15 4 40 16 56 27 46 32 112 33 169 3 26 -14 53 -26 59
-26 6 0 28 -19 50 -42 143 -155 109 -369 -77 -490 -44 -28 -159 -58 -227 -58
-24 0 -49 -4 -56 -9 -11 -6 -14 -55 -15 -221 -1 -251 -6 -240 112 -240 170 -1
282 -38 382 -127 74 -67 113 -133 139 -237 24 -96 23 -144 -5 -241 -23 -80
-58 -138 -122 -201 -107 -105 -239 -151 -387 -133 -147 18 -313 140 -359 265
-26 68 -59 149 -63 153 -2 2 -102 6 -221 7 -180 3 -222 1 -240 -12 -27 -17
-30 -52 -9 -110 7 -22 16 -61 21 -89 4 -27 15 -65 25 -85 10 -19 35 -69 55
-110 43 -89 67 -124 143 -206 63 -68 147 -134 233 -182 l56 -32 415 0 415 0
59 31 c121 65 251 179 339 301 40 54 94 176 121 271 23 83 25 101 22 280 -4
220 -12 259 -85 399 -56 110 -150 209 -249 264 -102 56 -106 67 -38 128 65 58
108 128 138 221 34 107 37 299 5 385 -11 30 -26 77 -34 104 -8 27 -23 57 -34
67 -11 10 -23 29 -27 41 -9 32 -22 37 -55 25 -18 -7 -29 -19 -29 -30 0 -13 -5
-17 -17 -13 -17 5 -91 7 -193 4 -25 0 -66 3 -92 7 -27 4 -59 3 -76 -3 -17 -6
-33 -8 -36 -4 -4 3 -23 12 -44 19 -55 19 -140 16 -190 -7 -35 -16 -47 -17 -62
-8 -15 10 -22 10 -32 0 -14 -14 -66 -16 -100 -4 -13 5 -61 6 -108 2 -105 -7
-129 -3 -140 24 -5 11 -9 15 -9 8 -1 -7 -8 -20 -16 -28 -13 -14 -15 -13 -12 5
2 12 12 30 23 41 25 25 44 48 44 53 0 3 -8 7 -18 9 -11 3 -26 -5 -40 -21z"/>
<path d="M5795 2075 c-27 -14 -58 -25 -68 -25 -24 0 -142 -70 -196 -117 -42
-36 -71 -73 -124 -162 -36 -61 -64 -131 -88 -221 -12 -47 -13 -160 -2 -171 5
-5 82 -10 172 -11 186 -2 181 -5 181 82 0 93 63 199 160 272 42 31 160 63 204
54 105 -20 138 -35 193 -91 65 -67 90 -118 99 -205 7 -79 -13 -167 -58 -249
-33 -58 -245 -277 -448 -460 -311 -281 -478 -443 -489 -474 -4 -12 -6 -84 -3
-159 l4 -138 679 0 679 0 0 145 c0 135 -1 145 -21 155 -14 8 -137 11 -396 9
-380 -2 -392 -1 -393 32 0 4 66 64 148 135 240 210 413 377 475 461 76 103
103 146 112 174 4 13 15 38 25 54 25 42 40 132 40 242 0 179 -27 276 -112 404
-44 66 -164 183 -198 194 -14 4 -36 15 -50 25 -14 10 -41 21 -60 25 -19 4 -51
16 -70 26 -30 16 -57 19 -190 19 -144 -1 -159 -2 -205 -25z"/>
<path d="M7324 2081 c-23 -10 -56 -22 -73 -26 -131 -29 -317 -189 -359 -310
-7 -22 -18 -46 -24 -53 -6 -7 -20 -50 -31 -95 -17 -73 -19 -134 -24 -567 -4
-422 -3 -493 11 -546 9 -34 16 -72 16 -85 0 -26 51 -135 93 -197 31 -45 120
-128 188 -174 l42 -28 362 0 362 0 44 31 c154 109 254 268 280 441 11 74 5
999 -7 1103 -4 28 -14 68 -24 90 -10 22 -25 57 -34 78 -21 53 -96 147 -158
200 -58 49 -152 102 -202 113 -17 4 -47 15 -66 25 -30 16 -57 19 -195 19 -135
0 -167 -3 -201 -19z m285 -321 c108 -37 164 -86 218 -190 l28 -55 3 -439 c2
-295 -1 -462 -8 -507 -33 -192 -151 -300 -328 -299 -94 1 -161 27 -224 86
-110 104 -116 140 -118 684 -2 484 0 500 69 593 50 69 110 114 160 123 20 3
52 12 71 19 44 18 31 19 129 -15z"/>
<path d="M3860 1950 c0 -5 5 -10 11 -10 5 0 7 5 4 10 -3 6 -8 10 -11 10 -2 0
-4 -4 -4 -10z"/>
<path d="M4077 1666 c-8 -19 8 -66 22 -66 6 0 21 -12 35 -26 13 -15 29 -24 34
-20 15 9 3 36 -15 36 -8 0 -11 5 -8 11 4 6 -2 13 -14 16 -12 3 -21 11 -21 17
0 7 -6 20 -13 30 -13 17 -14 17 -20 2z"/>
<path d="M4160 1530 c0 -5 7 -10 15 -10 8 0 15 5 15 10 0 6 -7 10 -15 10 -8 0
-15 -4 -15 -10z"/>
<path d="M4230 1460 c12 -17 26 -28 31 -25 5 4 9 1 9 -6 0 -7 3 -10 6 -7 12
12 -27 68 -47 68 -20 0 -20 0 1 -30z"/>
<path d="M2510 1315 c-10 -12 -9 -15 8 -15 11 0 22 7 26 15 3 9 0 15 -8 15 -7
0 -19 -7 -26 -15z"/>
<path d="M2466 1275 c-11 -8 -16 -15 -10 -15 5 0 18 7 28 15 11 8 16 15 10 15
-5 0 -18 -7 -28 -15z"/>
<path d="M2420 1234 c0 -8 5 -12 10 -9 6 3 10 10 10 16 0 5 -4 9 -10 9 -5 0
-10 -7 -10 -16z"/>
<path d="M2390 1224 c0 -8 5 -12 10 -9 6 4 8 11 5 16 -9 14 -15 11 -15 -7z"/>
<path d="M1441 1194 c0 -11 3 -14 6 -6 3 7 2 16 -1 19 -3 4 -6 -2 -5 -13z"/>
<path d="M2280 1151 c0 -6 5 -13 10 -16 6 -3 10 1 10 9 0 9 -4 16 -10 16 -5 0
-10 -4 -10 -9z"/>
<path d="M3867 1010 c-3 -11 -1 -23 4 -26 5 -3 9 6 9 20 0 31 -6 34 -13 6z"/>
<path d="M3863 807 c-18 -10 -19 -14 -7 -25 12 -11 17 -11 28 1 21 21 6 38
-21 24z"/>
<path d="M3647 603 c-2 -5 -3 -17 -2 -28 1 -11 2 -47 4 -80 2 -82 22 -49 27
46 2 54 0 69 -11 69 -8 0 -16 -3 -18 -7z"/>
</g>
</svg>
